<svg id="Layer_1" data-name="Layer 1" xmlns="http://www.w3.org/2000/svg" viewBox="0 0 64 64"><defs><style>.cls-2{fill:#298eea}.cls-5{fill:#c9c9c9}</style></defs><path d="M6.216 11.813h47.036a.216.216 0 01.216.216V47.1a.217.217 0 01-.217.217H6.216A.216.216 0 016 47.1V12.03a.216.216 0 01.216-.216z" fill="#d4e8fb"/><path class="cls-2" d="M52.469 12.814v33.507H7V12.814h45.469m.784-2H6.216A1.22 1.22 0 005 12.03V47.1a1.22 1.22 0 001.216 1.216h47.036a1.22 1.22 0 001.217-1.216V12.03a1.22 1.22 0 00-1.216-1.216z"/><rect x="10.531" y="16.679" width="47.469" height="35.507" rx=".217" ry=".217" fill="#fff"/><path class="cls-2" d="M57 17.679v33.507H11.531V17.679H57m.784-2H10.748A1.22 1.22 0 009.531 16.9v35.07a1.22 1.22 0 001.216 1.216h47.037A1.22 1.22 0 0059 51.97V16.9a1.22 1.22 0 00-1.216-1.216z"/><path fill="none" stroke="#298eea" stroke-miterlimit="10" d="M10 24.5h49"/><circle class="cls-5" cx="53.987" cy="20.596" r="1.368"/><circle class="cls-5" cx="48.513" cy="20.596" r="1.368"/><circle class="cls-5" cx="43.039" cy="20.596" r="1.368"/><path class="cls-2" d="M27.1 44.354a.608.608 0 01-.482-.238l-4.988-6.482 5.27-6.841a.608.608 0 01.965.741l-4.695 6.1 4.419 5.741a.608.608 0 01-.482.979zM40.761 44.354a.608.608 0 00.482-.238l4.989-6.483-5.265-6.841a.608.608 0 10-.965.741l4.695 6.1-4.419 5.741a.608.608 0 00.482.979zM30.748 45.33a.6.6 0 01-.246-.052.607.607 0 01-.31-.8l6.488-14.65a.608.608 0 011.112.492L31.3 44.967a.609.609 0 01-.552.363z"/></svg>